<svg xmlns="http://www.w3.org/2000/svg" viewBox="0 0 103.5 65.77"><g data-name="Layer 2"><path d="M12.92 52.6h12.92V46H12.92zm19.38 0h12.92V46H32.3zm6.51-19.76H12.92v6.59h25.89zm-13-6.54h6.49l12.92-13.13h-6.46zm19.46 13.13h19.42v-6.59H45.27zM97 0H6.46C3.2 0 0 3.29 0 6.59v52.6c0 3.29 3.25 6.59 6.46 6.59H97c3.25 0 6.46-3.29 6.46-6.59V6.59C103.5 3.29 100.25 0 97 0zm0 26.3v29.59s0 3.29-3.25 3.29H9.66c-3.25 0-3.25-3.29-3.25-3.29V26.3h6.46l12.92-13.13H6.36V9.83s0-3.29 3.25-3.29h84.13C97 6.54 97 9.83 97 9.83v3.29H58.18L45.27 26.3z" data-name="Layer 1"/></g></svg>